<svg width="1600" height="1000" viewBox="0 0 1600 1000" fill="none" xmlns="http://www.w3.org/2000/svg">
  <rect width="1600" height="1000" fill="#201712"/>
  <rect width="1600" height="1000" fill="url(#sky)"/>
  <circle cx="1260" cy="220" r="120" fill="#F7D79A" fill-opacity="0.95"/>
  <circle cx="1260" cy="220" r="180" fill="#F7D79A" fill-opacity="0.18"/>
  <path d="M0 610C145 540 278 517 413 528C561 540 676 611 815 623C970 636 1104 570 1262 572C1381 574 1499 618 1600 675V1000H0V610Z" fill="url(#horizon)"/>
  <path d="M1030 355L1064 355L1064 638L1030 638L1030 355Z" fill="#40281E"/>
  <path d="M986 415L1110 415L1110 638L986 638L986 415Z" fill="#56372A"/>
  <path d="M970 428L1126 428L1126 448L970 448L970 428Z" fill="#E9BE7A"/>
  <path d="M1041 290L1053 290L1053 396L1041 396L1041 290Z" fill="#EFD8A7"/>
  <path d="M998 344L1097 344L1097 355L998 355L998 344Z" fill="#EFD8A7"/>
  <path d="M963 415L1048 330H1155L1242 415H963Z" fill="#744735"/>
  <path d="M1037 355H1057V373H1075V393H1057V411H1037V393H1019V373H1037V355Z" fill="#F6E6BE"/>
  <path d="M0 713C161 689 274 690 416 718C553 745 716 811 842 813C982 816 1114 724 1272 720C1400 717 1491 755 1600 814V1000H0V713Z" fill="#2A3F36"/>
  <g fill="#1B2621">
    <ellipse cx="180" cy="855" rx="96" ry="118"/>
    <ellipse cx="320" cy="835" rx="104" ry="132"/>
    <ellipse cx="478" cy="862" rx="120" ry="110"/>
    <ellipse cx="668" cy="841" rx="122" ry="134"/>
    <ellipse cx="860" cy="855" rx="128" ry="118"/>
    <ellipse cx="1080" cy="842" rx="135" ry="132"/>
    <ellipse cx="1315" cy="866" rx="148" ry="112"/>
    <ellipse cx="1512" cy="846" rx="116" ry="128"/>
  </g>
  <g fill="#F5D6A0" fill-opacity="0.23">
    <circle cx="280" cy="230" r="4"/>
    <circle cx="360" cy="170" r="5"/>
    <circle cx="430" cy="250" r="3"/>
    <circle cx="520" cy="190" r="4"/>
    <circle cx="605" cy="240" r="3"/>
    <circle cx="730" cy="170" r="5"/>
    <circle cx="840" cy="230" r="3"/>
  </g>
  <defs>
    <linearGradient id="sky" x1="800" y1="0" x2="800" y2="1000" gradientUnits="userSpaceOnUse">
      <stop stop-color="#7A4A38"/>
      <stop offset="0.45" stop-color="#3D2A31"/>
      <stop offset="1" stop-color="#16181E"/>
    </linearGradient>
    <linearGradient id="horizon" x1="800" y1="528" x2="800" y2="1000" gradientUnits="userSpaceOnUse">
      <stop stop-color="#B76844"/>
      <stop offset="1" stop-color="#5C3A2E"/>
    </linearGradient>
  </defs>
</svg>
